<?xml version="1.0" encoding="UTF-8" standalone="no"?>
<svg
   xmlns:dc="http://purl.org/dc/elements/1.1/"
   xmlns:cc="http://creativecommons.org/ns#"
   xmlns:rdf="http://www.w3.org/1999/02/22-rdf-syntax-ns#"
   xmlns:svg="http://www.w3.org/2000/svg"
   xmlns="http://www.w3.org/2000/svg"
   xmlns:sodipodi="http://sodipodi.sourceforge.net/DTD/sodipodi-0.dtd"
   xmlns:inkscape="http://www.inkscape.org/namespaces/inkscape"
   width="124"
   height="71"
   viewBox="0 0 124 71"
   fill="none"
   version="1.1"
   id="svg35"
   sodipodi:docname="jaks_logo_light.svg"
   inkscape:version="0.92.4 (5da689c313, 2019-01-14)">
  <metadata
     id="metadata39">
    <rdf:RDF>
      <cc:Work
         rdf:about="">
        <dc:format>image/svg+xml</dc:format>
        <dc:type
           rdf:resource="http://purl.org/dc/dcmitype/StillImage" />
      </cc:Work>
    </rdf:RDF>
  </metadata>
  <sodipodi:namedview
     pagecolor="#ffffff"
     bordercolor="#666666"
     borderopacity="1"
     objecttolerance="10"
     gridtolerance="10"
     guidetolerance="10"
     inkscape:pageopacity="0"
     inkscape:pageshadow="2"
     inkscape:window-width="2560"
     inkscape:window-height="1374"
     id="namedview37"
     showgrid="false"
     inkscape:zoom="3.1451613"
     inkscape:cx="62"
     inkscape:cy="35.5"
     inkscape:window-x="-8"
     inkscape:window-y="-8"
     inkscape:window-maximized="1"
     inkscape:current-layer="svg35" />
  <g
     id="g4"
     transform="matrix(1.2873318,0,0,1.3366536,1.9076919,2.0745871)"
     style="filter:url(#filter0_d)">
    <path
       d="m 10.016,36.564 c 1.056,3.144 3.096,4.716 6.12,4.716 2.04,0 3.456,-0.576 4.248,-1.728 0.816,-1.176 1.224,-2.784 1.224,-4.824 V 16.8 h 1.08 v 17.928 c 0,5.088 -2.184,7.632 -6.552,7.632 -2.064,0 -3.66,-0.516 -4.788,-1.548 C 10.244,39.78 9.368,38.364 8.72,36.564 Z m 22.5326,4.356 h 11.736 L 36.9046,23.532 29.0566,42 h -1.152 l 9,-21.24 9,21.24 H 32.5486 Z M 51.0917,42 V 21.12 h 1.08 V 42 Z m 13.32,0 -11.088,-11.016 9.936,-9.864 h 1.548 L 54.8717,30.984 65.9597,42 Z M 76.2071,20.688 c 2.976,0 5.088,0.66 6.336,1.98 l -0.72,0.792 c -1.152,-1.128 -2.976,-1.692 -5.472,-1.692 -3.744,0 -5.616,1.488 -5.616,4.464 0,1.152 0.456,2.076 1.368,2.772 0.912,0.672 2.016,1.188 3.312,1.548 1.32,0.36 2.628,0.744 3.924,1.152 1.32,0.384 2.436,1.02 3.348,1.908 0.912,0.864 1.368,2.004 1.368,3.42 0,1.656 -0.684,2.976 -2.052,3.96 -1.368,0.984 -3.348,1.476 -5.94,1.476 -1.272,0 -2.532,-0.168 -3.78,-0.504 -1.224,-0.336 -2.136,-0.828 -2.736,-1.476 l 0.72,-0.792 c 1.224,1.128 3.108,1.692 5.652,1.692 2.328,0 4.08,-0.432 5.256,-1.296 1.2,-0.864 1.8,-1.872 1.8,-3.024 0,-1.2 -0.456,-2.172 -1.368,-2.916 -0.912,-0.744 -2.028,-1.296 -3.348,-1.656 -1.296,-0.384 -2.604,-0.768 -3.924,-1.152 -1.296,-0.408 -2.4,-1.032 -3.312,-1.872 -0.912,-0.84 -1.368,-1.944 -1.368,-3.312 0,-1.848 0.612,-3.216 1.836,-4.104 1.248,-0.912 2.82,-1.368 4.716,-1.368 z"
       id="path2"
       inkscape:connector-curvature="0"
       style="fill:#0038ff" />
  </g>
  <path
     d="m 110.04357,42.174196 v -16.70817 -8.688248 h -7.80921 v 5.346614 L 61.058658,3.4112356 20.592927,22.124392 v -5.346614 h -7.099248 v 8.688248 16.70817"
     id="path6"
     inkscape:connector-curvature="0"
     style="stroke:#979090;stroke-width:1.3117609" />
  <path
     d="m 34.090987,26.134353 v 33.41634"
     id="path8"
     inkscape:connector-curvature="0"
     style="stroke:#979090;stroke-width:1.3117609" />
  <path
     d="m 62.412287,26.134353 v 33.41634"
     id="path10"
     inkscape:connector-curvature="0"
     style="stroke:#979090;stroke-width:1.3117609" />
  <path
     d="m 88.158925,26.134353 v 33.41634"
     id="path12"
     inkscape:connector-curvature="0"
     style="stroke:#979090;stroke-width:1.3117609" />
  <path
     d="M 110.04357,62.224001 H 13.493679"
     id="path14"
     inkscape:connector-curvature="0"
     style="stroke:#979090;stroke-width:1.3117609" />
  <path
     d="M 122.91688,67.570615 H 1.9076919"
     id="path16"
     inkscape:connector-curvature="0"
     style="stroke:#979090;stroke-width:1.3117609" />
  <defs
     id="defs33">
    <filter
       id="filter0_d"
       x="4.71997"
       y="16.8"
       width="83.3351"
       height="33.668"
       filterUnits="userSpaceOnUse"
       color-interpolation-filters="sRGB">
      <feFlood
         flood-opacity="0"
         result="BackgroundImageFix"
         id="feFlood18" />
      <feColorMatrix
         in="SourceAlpha"
         type="matrix"
         values="0 0 0 0 0 0 0 0 0 0 0 0 0 0 0 0 0 0 127 0"
         id="feColorMatrix20" />
      <feOffset
         dy="4"
         id="feOffset22" />
      <feGaussianBlur
         stdDeviation="2"
         id="feGaussianBlur24" />
      <feColorMatrix
         type="matrix"
         values="0 0 0 0 0 0 0 0 0 0 0 0 0 0 0 0 0 0 0.25 0"
         id="feColorMatrix26" />
      <feBlend
         mode="normal"
         in2="BackgroundImageFix"
         result="effect1_dropShadow"
         id="feBlend28" />
      <feBlend
         mode="normal"
         in="SourceGraphic"
         in2="effect1_dropShadow"
         result="shape"
         id="feBlend30" />
    </filter>
  </defs>
</svg>
